# xmcd CD database file generated by OrangeCD 5.2
#
# Track frame offsets:
#	183
#	13495
#	30070
#	43520
#	63323
#	76443
#	90158
#	106180
#	122278
#	138943
#	153170
#	164705
#	181088
#	190583
#	209398
#	224310
#
# Disc length: 3191 seconds
#
# Revision: 2
# Processed by: cddbd v1.5.1PL0 Copyright (c) Steve Scherf et al.
# Submitted via: OrangeCD 5.2
#
DISCID=c10c7510
DTITLE=Dave Taylor - Boogie In The City
DYEAR=1997
DGENRE=Blues
TTITLE0=Minor Details
TTITLE1=Scrapin' The Barrel
TTITLE2=Boogie F'release
TTITLE3=Shufflin'
TTITLE4=Driving Home
TTITLE5=Sky Jive
TTITLE6=Big Beam Boogie
TTITLE7=Dave's Boogie
TTITLE8=Chattanooga Choo Choo
TTITLE9=Honky Tonk Express
TTITLE10=Boogie In The City
TTITLE11=Cadillac Boogie
TTITLE12=Grizzly Bear Boogie
TTITLE13=Nola Boogie
TTITLE14=Swanee River Boogie
TTITLE15=Boogie Woogie
EXTD=
EXTT0=
EXTT1=
EXTT2=
EXTT3=
EXTT4=
EXTT5=
EXTT6=
EXTT7=
EXTT8=
EXTT9=
EXTT10=
EXTT11=
EXTT12=20 seconds slow after 1:15
EXTT13=
EXTT14=
EXTT15=
PLAYORDER=
